<svg width="28" height="33" viewBox="0 0 28 33" fill="none" xmlns="http://www.w3.org/2000/svg">
<path d="M27.056 25.438C26.5893 26.5249 26.013 27.5614 25.336 28.5313C24.4307 29.8213 23.69 30.714 23.1194 31.21C22.2347 32.0233 21.286 32.4407 20.2707 32.464C19.542 32.464 18.6634 32.2567 17.64 31.836C16.6134 31.4173 15.67 31.2093 14.8074 31.2093C13.9027 31.2093 12.9327 31.4173 11.8947 31.836C10.8554 32.2567 10.018 32.476 9.37802 32.4973C8.40469 32.5393 7.43402 32.1107 6.46469 31.21C5.84669 30.67 5.07402 29.746 4.14735 28.4367C3.15335 27.038 2.33602 25.4167 1.69602 23.5673C1.01069 21.5707 0.666687 19.6367 0.666687 17.7647C0.666687 15.62 1.13002 13.7707 2.05802 12.2207C2.78802 10.9753 3.75802 9.994 4.97269 9.27267C6.16434 8.55956 7.52404 8.17581 8.91269 8.16067C9.68602 8.16067 10.7 8.4 11.9607 8.87C13.2174 9.34133 14.024 9.58067 14.378 9.58067C14.642 9.58067 15.5387 9.30067 17.058 8.74333C18.4954 8.226 19.708 8.012 20.7014 8.09667C23.394 8.314 25.4167 9.37533 26.7614 11.2873C24.354 12.746 23.1627 14.7893 23.1867 17.4107C23.208 19.4527 23.9487 21.152 25.4047 22.5007C26.0647 23.1273 26.8014 23.6113 27.6207 23.9547C27.4489 24.4552 27.2606 24.9499 27.056 25.438ZM20.8814 1.14067C20.8814 2.74067 20.2967 4.23533 19.1314 5.618C17.7247 7.26267 16.024 8.21267 14.1794 8.06267C14.1546 7.86139 14.1421 7.65879 14.142 7.456C14.142 5.92 14.8107 4.276 15.9987 2.93133C16.592 2.25067 17.3454 1.68467 18.26 1.23333C19.1734 0.788667 20.036 0.542667 20.848 0.5C20.8714 0.714 20.8814 0.928 20.8814 1.14V1.14067Z" fill="white"/>
</svg>
